<svg version="1.1" x="0px" y="0px" width="500" height="349" xmlns="http://www.w3.org/2000/svg" xmlns:xlink="http://www.w3.org/1999/xlink" xmlns:a="http://ns.adobe.com/AdobeSVGViewerExtensions/3.0/" xml:space="preserve"><g transform="translate(180.984375 20.609375) scale(1.4873056607037 1.4873045800452) rotate(0 45.873107910156 55.469482421875)"><linearGradient id="SVGID_1" x1="0%" y1="0%" x2="100%" y2="0%" gradientTransform="rotate(90)"><stop offset="0%" stop-color="#72e2ae" stop-opacity="1"></stop><stop offset="100%" stop-color="#AEE272" stop-opacity="1"></stop></linearGradient><path d="M63.049 64.764c.615 0 1.224-.026 1.829-.064 14.996-.943 26.868-14.811 26.868-32.156S78.898 0 63.049 0H40.945S22.65 2.855 22.65 26.053v.003c.599-10.283 10.282-9.285 10.282-9.285h24.901c8.335 0 15.092 6.757 15.092 15.093 0 7.918-6.099 14.408-13.854 15.038-.409.033-.821.055-1.237.055H30.596c-13.168 0-5.351 9.042-5.351 9.042l6.434 8.766c12.188 16.607 24.812 32.479 28.13 37 9.703 13.22 27.793 8.264 27.793 8.264L53.405 64.764h9.644z" fill="url(#SVGID_1)"></path><linearGradient id="SVGID_2" x1="0%" y1="0%" x2="100%" y2="0%" gradientTransform="rotate(90)"><stop offset="0%" stop-color="#72e2ae" stop-opacity="1"></stop><stop offset="100%" stop-color="#aee272" stop-opacity="1"></stop></linearGradient><path d="M35.862 0H19.957C-1.469 0 .022 16.771.022 16.771v18.757a9.052 9.052 0 00-.022.596c0 .201.009.399.022.597.307 4.61 4.141 8.255 8.829 8.255 4.308 0 7.896-3.079 8.687-7.155.106-.55.164-1.116.164-1.696s-.058-1.146-.164-1.695v-7.354c0-.352.01-.69.029-1.019v-.003C17.568 2.855 35.862 0 35.862 0z" fill="url(#SVGID_2)"></path></g>
<g transform="translate(47.578125 252.61290322581)  scale(1 1)"><text dominant-baseline="auto" alignment-baseline="auto" font-family="Cunia" font-size="62px" fill="#AEE272" letter-spacing="0" xml:space="preserve">Robin</text></g>
<g transform="translate(263.5 252.61290322581)  scale(1 1)"><text dominant-baseline="auto" alignment-baseline="auto" font-family="Cunia" font-size="62px" fill="#72E2AE" letter-spacing="0" xml:space="preserve">Regis</text></g>
<g transform="translate(20.2890625 319.38709677419)  scale(1 1)"><text dominant-baseline="auto" alignment-baseline="auto" font-family="Cunia" font-size="34px" fill="#72E2AE" letter-spacing="0" xml:space="preserve">Développeur Front-end</text></g>
<g transform="translate(27.180390625 272.61290322581) scale(0.84018822944029 0.84018961588542) rotate(0 265.20199584961 1.5)"><rect width="530.404" height="3" fill="#ff8559"></rect></g>
</svg>