<?xml version="1.0" standalone="no"?>
<!DOCTYPE svg PUBLIC "-//W3C//DTD SVG 20010904//EN"
 "http://www.w3.org/TR/2001/REC-SVG-20010904/DTD/svg10.dtd">
<svg version="1.0" xmlns="http://www.w3.org/2000/svg"
 width="660.000000pt" height="660.000000pt" viewBox="0 0 660.000000 660.000000"
 preserveAspectRatio="xMidYMid meet">
<metadata>
Created by potrace 1.14, written by Peter Selinger 2001-2017
</metadata>
<g transform="translate(0.000000,660.000000) scale(0.100000,-0.100000)"
fill="#000000" stroke="none">
<path d="M1588 6595 c-2 -1 -34 -5 -71 -9 -199 -19 -401 -86 -552 -185 -129
-85 -270 -253 -315 -376 -6 -16 -15 -39 -20 -50 -8 -18 -29 -90 -36 -125 -2
-8 -8 -37 -13 -65 -6 -31 -9 -318 -8 -745 2 -661 3 -698 22 -750 64 -182 216
-317 398 -354 221 -46 461 66 566 263 33 63 66 175 56 191 -3 6 -3 10 2 10 4
0 6 30 4 67 -6 117 -5 714 3 793 8 89 32 239 48 295 6 22 12 45 14 50 7 33 37
132 43 140 4 6 18 37 31 70 13 33 39 86 57 117 18 31 33 61 33 66 0 6 3 12 8
14 4 2 25 30 47 63 61 92 227 252 335 324 114 76 282 157 365 176 6 1 17 5 25
8 8 3 24 8 35 10 11 3 -226 5 -527 5 -300 0 -548 -1 -550 -3z"/>
<path d="M2965 6593 c-160 -39 -382 -152 -515 -260 -62 -50 -174 -167 -223
-232 -53 -71 -127 -193 -127 -210 0 -6 -5 -11 -12 -11 -6 0 -9 -3 -5 -6 3 -3
-2 -20 -12 -37 -42 -76 -103 -285 -127 -437 -2 -14 -6 -38 -9 -55 -3 -16 -7
-73 -10 -125 l-4 -95 13 55 c12 51 20 73 50 140 29 67 143 190 175 190 6 0 11
3 11 8 0 19 139 68 223 78 55 7 1644 8 1722 1 33 -3 73 -10 88 -16 15 -6 27
-8 27 -6 0 6 135 -43 172 -61 15 -8 31 -14 34 -13 4 0 10 -3 13 -8 3 -4 33
-26 66 -47 152 -99 293 -284 349 -462 36 -112 45 -175 41 -297 -2 -67 -5 -129
-8 -137 -5 -20 -21 -93 -22 -102 0 -3 -3 -10 -7 -14 -5 -4 -8 -13 -8 -20 0
-24 -60 -145 -102 -208 -51 -74 -133 -162 -202 -215 -86 -66 -235 -139 -318
-155 -13 -2 -43 -9 -68 -14 -64 -14 -58 -14 -1030 -16 -487 -2 -903 -6 -925
-10 -222 -39 -307 -131 -271 -295 7 -30 73 -167 89 -183 7 -7 24 -29 37 -48
13 -19 27 -37 30 -40 3 -3 30 -39 60 -80 29 -41 57 -76 62 -78 4 -2 8 -8 8
-12 0 -7 65 -99 113 -160 7 -8 48 -64 92 -125 44 -60 82 -112 85 -115 3 -3 16
-22 30 -42 14 -21 28 -38 33 -38 4 0 7 -6 7 -14 0 -8 3 -16 8 -18 4 -1 25 -28
47 -58 22 -30 42 -57 45 -60 3 -3 43 -57 90 -120 47 -63 87 -117 90 -120 3 -3
46 -59 95 -125 49 -66 91 -122 94 -125 3 -3 53 -68 111 -145 58 -77 107 -142
110 -145 3 -3 41 -52 85 -110 44 -58 85 -112 92 -120 6 -8 78 -100 158 -205
81 -104 158 -203 171 -220 13 -16 44 -57 69 -90 24 -33 51 -67 58 -75 8 -8 34
-42 58 -75 24 -33 49 -66 56 -75 7 -8 26 -33 42 -55 101 -133 152 -192 213
-250 166 -158 356 -261 588 -320 75 -19 75 -20 194 -39 123 -19 450 -14 566 8
14 3 45 8 70 11 24 4 53 11 63 17 16 8 17 12 4 26 -25 29 -43 53 -177 232 -72
96 -136 182 -143 190 -7 8 -75 98 -151 200 -77 102 -142 187 -145 190 -3 3
-17 21 -31 40 -13 19 -28 40 -32 45 -10 11 -116 152 -226 300 -41 55 -82 106
-90 113 -9 6 -12 12 -6 12 5 0 5 3 -1 8 -5 4 -44 52 -85 107 -41 55 -83 109
-92 119 -10 11 -18 23 -18 27 0 5 -8 16 -18 26 -10 10 -38 45 -62 78 -25 33
-51 66 -57 73 -7 7 -13 17 -13 20 0 4 -10 18 -23 32 -12 14 -33 41 -47 60 -13
19 -27 37 -30 40 -3 3 -30 39 -60 80 -30 41 -60 82 -67 90 -7 8 -39 51 -72 95
-34 44 -64 85 -69 90 -4 6 -70 93 -147 195 -76 102 -144 188 -150 192 -5 4 -8
8 -5 9 3 1 147 3 320 4 173 2 349 5 390 9 67 5 94 9 165 21 165 27 406 127
573 238 145 96 321 261 417 392 17 22 32 42 35 45 19 18 124 192 162 271 66
134 146 349 131 349 -3 0 -1 6 5 13 6 7 13 26 16 42 3 17 8 40 11 53 3 12 7
32 10 45 8 36 16 80 20 112 2 17 7 57 12 90 10 71 9 404 -1 490 -18 150 -85
406 -141 540 -40 95 -124 259 -170 330 -105 163 -304 383 -430 476 -33 24 -62
46 -65 50 -9 9 -164 104 -170 103 -3 -1 -21 9 -40 21 -19 12 -46 26 -60 30
-14 4 -29 11 -35 15 -13 9 -144 53 -220 74 -156 42 -210 45 -970 44 -401 0
-739 -2 -750 -5z"/>
</g>
</svg>
